<svg width="256" height="256" viewBox="0 0 256 256" xmlns="http://www.w3.org/2000/svg" node="[object Object]" class="ant-dropdown-trigger ant-dropdown-open" style="max-width: 256px;">
  <defs>
    <linearGradient id="fur" x1="0" x2="0" y1="0" y2="1">
      <stop offset="0%" stop-color="#F6B263"/>
      <stop offset="100%" stop-color="#E59043"/>
    </linearGradient>
    <clipPath id="circle">
      <circle cx="128" cy="128" r="120"/>
    </clipPath>
  </defs>
  <g clip-path="url(#circle)" transform="translate(0,4)">
    
    <ellipse cx="128" cy="140" rx="104" ry="92" fill="url(#fur)"/>
    
    <path d="M52 76 C60 56, 84 48, 100 64 C96 84, 72 96, 52 92 Z" fill="#E59043"/>
    <path d="M204 76 C196 56, 172 48, 156 64 C160 84, 184 96, 204 92 Z" fill="#E59043"/>
    <path d="M60 80 C70 70, 86 68, 96 76 C88 88, 72 92, 60 90 Z" fill="#F9C89A" opacity="0.6"/>
    <path d="M196 80 C186 70, 170 68, 160 76 C168 88, 184 92, 196 90 Z" fill="#F9C89A" opacity="0.6"/>
    
    <path d="M40 120 C70 94, 186 94, 216 120 C208 86, 176 64, 128 64 C80 64, 48 86, 40 120 Z" fill="#F9C89A" opacity="0.35"/>
    
    <circle cx="92" cy="132" r="22" fill="#1A1A1C"/>
    <circle cx="164" cy="132" r="22" fill="#1A1A1C"/>
    <circle cx="86" cy="126" r="6" fill="#FFFFFF" opacity="0.9"/>
    <circle cx="158" cy="126" r="6" fill="#FFFFFF" opacity="0.9"/>
    
    <path d="M116 150 C118 144, 138 144, 140 150 C134 156, 122 156, 116 150 Z" fill="#E9858E"/>
    
    <ellipse cx="104" cy="164" rx="34" ry="22" fill="#F4E7D8"/>
    <ellipse cx="152" cy="164" rx="34" ry="22" fill="#F4E7D8"/>
    
    <path d="M128 156 v12" stroke="#573E34" stroke-width="3" stroke-linecap="round"/>
    <path d="M128 168 C120 176, 104 178, 92 172" stroke="#573E34" stroke-width="3" fill="none" stroke-linecap="round"/>
    <path d="M128 168 C136 176, 152 178, 164 172" stroke="#573E34" stroke-width="3" fill="none" stroke-linecap="round"/>
    
    <g stroke="#FFFFFF" stroke-width="3" stroke-linecap="round" opacity="0.9">
      <path d="M64 160 H104"/>
      <path d="M64 170 H104"/>
      <path d="M64 150 H104"/>
      <path d="M152 160 H192"/>
      <path d="M152 170 H192"/>
      <path d="M152 150 H192"/>
    </g>
    
    <g fill="#D97834" opacity="0.7">
      <path d="M118 96 l-10 -18 a2 2 0 0 1 3 -2 l10 14 Z"/>
      <path d="M138 96 l10 -18 a2 2 0 0 0 -3 -2 l-10 14 Z"/>
      <rect x="124" y="92" width="8" height="14" rx="3"/>
    </g>
    
    <ellipse cx="128" cy="186" rx="46" ry="10" fill="#000" opacity="0.08"/>
  </g>
</svg>